<?xml version="1.0" encoding="UTF-8"?>
<svg version="1.1" xmlns="http://www.w3.org/2000/svg" width="1024" height="1024">
<path d="M0 0 C337.92 0 675.84 0 1024 0 C1024 337.92 1024 675.84 1024 1024 C686.08 1024 348.16 1024 0 1024 C0 686.08 0 348.16 0 0 Z " fill="#FCFBFB" transform="translate(0,0)"/>
<path d="M0 0 C2.7389432 -0.00089513 5.47787382 -0.00658335 8.21681213 -0.01159668 C13.93474182 -0.01882987 19.6524634 -0.00940148 25.37036133 0.00976562 C31.93362901 0.03151571 38.49639905 0.0244793 45.05965465 0.00246 C50.74431495 -0.01583138 56.42882752 -0.01818574 62.11350781 -0.00778532 C65.48698864 -0.00162353 68.86005415 -0.00213348 72.23354912 -0.01393127 C99.62725773 -0.08872715 120.49010973 3.30819906 141.08984375 22.80078125 C159.42147556 41.66421808 160.3211633 64.63261484 160.22870827 89.51614881 C160.21843971 93.15392003 160.22801153 96.79165489 160.23425293 100.4294281 C160.24148876 106.53237265 160.23204858 112.63512229 160.21289062 118.73803711 C160.19111981 125.7534911 160.198191 132.76847994 160.22019625 139.78392273 C160.23845557 145.85241008 160.2408579 151.92075891 160.23044157 157.98926491 C160.22426523 161.59401581 160.22320652 165.19854941 160.23658752 168.8032856 C160.31511052 193.34970239 158.42025213 213.73364391 140.69140625 232.53125 C127.67938576 245.24560989 109.46396826 253.59452859 91.13551331 253.67842102 C89.51489738 253.68915398 89.51489738 253.68915398 87.86154175 253.70010376 C86.69108307 253.70279266 85.52062439 253.70548157 84.31469727 253.70825195 C83.06995132 253.71482315 81.82520538 253.72139435 80.54273987 253.72816467 C76.42692824 253.74785907 72.31115553 253.75956277 68.1953125 253.76953125 C66.77106139 253.77358314 65.34681047 253.77770018 63.92255974 253.78188133 C57.22432615 253.8009178 50.52610343 253.81514848 43.82784802 253.8234933 C36.13334886 253.83324098 28.43913927 253.85950192 20.74474198 253.89999419 C14.77415767 253.93031994 8.80365556 253.94497788 2.83299583 253.94827431 C-0.72165543 253.95060733 -4.27599689 253.95933516 -7.8305645 253.98473549 C-36.27881086 254.17759965 -36.27881086 254.17759965 -48.30859375 249.53125 C-49.15323181 249.20604874 -49.99786987 248.88084747 -50.86810303 248.54579163 C-52.84968453 247.73651384 -54.72568216 246.83664543 -56.62109375 245.84375 C-57.61689453 245.3321936 -57.61689453 245.3321936 -58.6328125 244.81030273 C-64.69237624 241.56316054 -69.55687184 237.49701343 -74.30859375 232.53125 C-75.01371094 231.84546875 -75.71882813 231.1596875 -76.4453125 230.453125 C-89.01225646 217.52712549 -92.76984987 201.07858307 -92.72851562 183.55541992 C-92.73587615 182.19868786 -92.74446804 180.84196201 -92.75418091 179.48524475 C-92.77619787 175.83624766 -92.77933766 172.18747767 -92.7774334 168.5384233 C-92.77731277 165.47480544 -92.78591432 162.41123411 -92.79421091 159.34762937 C-92.81337385 152.11021996 -92.81635495 144.87292585 -92.80957031 137.63549805 C-92.80293548 130.20882796 -92.82578751 122.78265525 -92.86288404 115.35608596 C-92.89373327 108.94374429 -92.90492469 102.53156137 -92.90104723 96.11914712 C-92.89899529 92.30522746 -92.90421451 88.49169518 -92.92893982 84.67784691 C-92.95145849 81.08648216 -92.94912537 77.49591751 -92.9290123 73.90454674 C-92.9240621 71.9859468 -92.94343817 70.06733016 -92.96401978 68.14883423 C-92.82741131 53.75210573 -88.05802097 41.9597654 -79.30859375 30.53125 C-78.7878125 29.82742188 -78.26703125 29.12359375 -77.73046875 28.3984375 C-57.78022182 3.51100825 -29.86150387 -0.10434047 0 0 Z " fill="#FAFBFB" transform="translate(159.30859375,372.46875)"/>
<path d="M0 0 C2.7389432 -0.00089513 5.47787382 -0.00658335 8.21681213 -0.01159668 C13.93474182 -0.01882987 19.6524634 -0.00940148 25.37036133 0.00976562 C31.93362901 0.03151571 38.49639905 0.0244793 45.05965465 0.00246 C50.74431495 -0.01583138 56.42882752 -0.01818574 62.11350781 -0.00778532 C65.48698864 -0.00162353 68.86005415 -0.00213348 72.23354912 -0.01393127 C99.62725773 -0.08872715 120.49010973 3.30819906 141.08984375 22.80078125 C159.42147556 41.66421808 160.3211633 64.63261484 160.22870827 89.51614881 C160.21843971 93.15392003 160.22801153 96.79165489 160.23425293 100.4294281 C160.24148876 106.53237265 160.23204858 112.63512229 160.21289062 118.73803711 C160.19111981 125.7534911 160.198191 132.76847994 160.22019625 139.78392273 C160.23845557 145.85241008 160.2408579 151.92075891 160.23044157 157.98926491 C160.22426523 161.59401581 160.22320652 165.19854941 160.23658752 168.8032856 C160.31511052 193.34970239 158.42025213 213.73364391 140.69140625 232.53125 C127.67938576 245.24560989 109.46396826 253.59452859 91.13551331 253.67842102 C89.51489738 253.68915398 89.51489738 253.68915398 87.86154175 253.70010376 C86.69108307 253.70279266 85.52062439 253.70548157 84.31469727 253.70825195 C83.06995132 253.71482315 81.82520538 253.72139435 80.54273987 253.72816467 C76.42692824 253.74785907 72.31115553 253.75956277 68.1953125 253.76953125 C66.77106139 253.77358314 65.34681047 253.77770018 63.92255974 253.78188133 C57.22432615 253.8009178 50.52610343 253.81514848 43.82784802 253.8234933 C36.13334886 253.83324098 28.43913927 253.85950192 20.74474198 253.89999419 C14.77415767 253.93031994 8.80365556 253.94497788 2.83299583 253.94827431 C-0.72165543 253.95060733 -4.27599689 253.95933516 -7.8305645 253.98473549 C-36.27881086 254.17759965 -36.27881086 254.17759965 -48.30859375 249.53125 C-49.15323181 249.20604874 -49.99786987 248.88084747 -50.86810303 248.54579163 C-52.84968453 247.73651384 -54.72568216 246.83664543 -56.62109375 245.84375 C-57.61689453 245.3321936 -57.61689453 245.3321936 -58.6328125 244.81030273 C-64.69237624 241.56316054 -69.55687184 237.49701343 -74.30859375 232.53125 C-75.01371094 231.84546875 -75.71882813 231.1596875 -76.4453125 230.453125 C-89.01225646 217.52712549 -92.76984987 201.07858307 -92.72851562 183.55541992 C-92.73587615 182.19868786 -92.74446804 180.84196201 -92.75418091 179.48524475 C-92.77619787 175.83624766 -92.77933766 172.18747767 -92.7774334 168.5384233 C-92.77731277 165.47480544 -92.78591432 162.41123411 -92.79421091 159.34762937 C-92.81337385 152.11021996 -92.81635495 144.87292585 -92.80957031 137.63549805 C-92.80293548 130.20882796 -92.82578751 122.78265525 -92.86288404 115.35608596 C-92.89373327 108.94374429 -92.90492469 102.53156137 -92.90104723 96.11914712 C-92.89899529 92.30522746 -92.90421451 88.49169518 -92.92893982 84.67784691 C-92.95145849 81.08648216 -92.94912537 77.49591751 -92.9290123 73.90454674 C-92.9240621 71.9859468 -92.94343817 70.06733016 -92.96401978 68.14883423 C-92.82741131 53.75210573 -88.05802097 41.9597654 -79.30859375 30.53125 C-78.7878125 29.82742188 -78.26703125 29.12359375 -77.73046875 28.3984375 C-57.78022182 3.51100825 -29.86150387 -0.10434047 0 0 Z M-67.30859375 34.53125 C-77.03451432 46.66934595 -80.93382038 59.40091805 -80.82617188 74.91796875 C-80.83318115 76.1864566 -80.84019043 77.45494446 -80.84741211 78.76187134 C-80.86544072 82.20004129 -80.85866428 85.63772401 -80.84589577 89.07590103 C-80.83566043 92.69994524 -80.8451903 96.32395193 -80.85144043 99.94799805 C-80.85868657 106.03018568 -80.8492095 112.11217806 -80.83007812 118.19433594 C-80.80831508 125.19329447 -80.81536862 132.19178666 -80.83738375 139.19073391 C-80.85562494 145.23535071 -80.85805381 151.27982837 -80.84762907 157.32446384 C-80.84144168 160.91913542 -80.84042538 164.51358891 -80.85377502 168.10824585 C-80.86763923 172.12061492 -80.8483428 176.13219936 -80.82617188 180.14453125 C-80.8342688 181.31166656 -80.84236572 182.47880188 -80.85070801 183.68130493 C-80.68421793 200.06199604 -74.27231637 213.59781184 -63.30859375 225.53125 C-49.81514562 238.07479835 -34.50316495 241.06234186 -16.55859375 240.71875 C-15.16798346 240.70365584 -13.77735708 240.68997591 -12.38671875 240.67773438 C-9.02717118 240.64273909 -5.66782814 240.58894677 -2.30859375 240.53125 C-2.30859375 232.28125 -2.30859375 224.03125 -2.30859375 215.53125 C-4.78265593 214.29421891 -6.48835958 214.38979729 -9.25390625 214.35546875 C-10.2490625 214.33162109 -11.24421875 214.30777344 -12.26953125 214.28320312 C-14.35527012 214.24071585 -16.44126571 214.20920765 -18.52734375 214.18945312 C-26.04137138 213.98180326 -31.40470619 212.68350498 -37.296875 207.92578125 C-43.74198567 200.22587028 -44.83871296 191.38575887 -45.93359375 181.65625 C-46.17321916 179.61688482 -46.41529416 177.57780555 -46.66015625 175.5390625 C-46.76150879 174.64848145 -46.86286133 173.75790039 -46.96728516 172.84033203 C-47.26263828 170.37893332 -47.26263828 170.37893332 -48.30859375 167.53125 C-50.24491682 166.68827268 -50.24491682 166.68827268 -52.55859375 166.15625 C-57.61173065 164.62183164 -60.65172549 162.31051289 -63.3984375 157.703125 C-65.52676005 152.62438105 -65.53770835 146.73322636 -63.56298828 141.58886719 C-61.05746661 136.23871106 -58.08277135 131.07268325 -54.7019043 126.22973633 C-53.00123518 122.93597502 -52.95430047 120.70256913 -52.97265625 117.0078125 C-52.96339111 115.74630371 -52.95412598 114.48479492 -52.94458008 113.18505859 C-52.9437442 112.52624695 -52.94290833 111.8674353 -52.94204712 111.18865967 C-52.89361647 99.54467199 -52.3993128 89.23410947 -47.30859375 78.53125 C-46.84066406 77.46390625 -46.37273437 76.3965625 -45.890625 75.296875 C-41.81771886 66.51774219 -36.40888235 59.11200529 -29.30859375 52.53125 C-28.78265625 52.01175781 -28.25671875 51.49226563 -27.71484375 50.95703125 C-11.21165047 35.39787657 12.41449231 27.97383273 34.75341797 28.10717773 C47.57242031 28.51594343 60.42457423 31.32299562 71.69140625 37.53125 C72.84382812 38.14226562 73.99625 38.75328125 75.18359375 39.3828125 C81.99500487 43.07304079 88.16277651 47.03695957 93.69140625 52.53125 C94.41328125 51.768125 95.13515625 51.005 95.87890625 50.21875 C99.62719848 46.63704853 101.96653817 44.71605729 107.19140625 44.15625 C111.03291787 44.56784053 112.77169098 45.01705074 115.69140625 47.53125 C119.68078722 54.27192819 119.34360887 60.85519885 118.00390625 68.40625 C116.3935615 72.24040416 115.39487776 73.60235859 111.69140625 75.53125 C108.23565829 76.13373237 105.14222071 76.18502869 101.69140625 75.53125 C98.42217124 73.16627148 97.03233161 71.2851415 95.37890625 67.62890625 C92.45257622 62.25719395 87.50269825 59.16673088 82.69140625 55.53125 C81.87027344 54.89703125 81.04914063 54.2628125 80.203125 53.609375 C62.42534142 40.45788862 40.50975865 35.89413384 18.78515625 39.109375 C4.33228528 42.56549632 -10.48087433 49.25981708 -21.30859375 59.53125 C-22.08332031 60.22863281 -22.85804688 60.92601562 -23.65625 61.64453125 C-34.78660477 72.10594984 -42.72723082 86.32536649 -43.46411133 101.79638672 C-43.53033731 106.76367511 -43.56952896 111.72767774 -43.5234375 116.6953125 C-43.64283662 125.47574014 -45.37768432 131.27087385 -50.30859375 138.53125 C-50.82260742 139.29332764 -51.33662109 140.05540527 -51.86621094 140.84057617 C-52.51831543 141.80120972 -52.51831543 141.80120972 -53.18359375 142.78125 C-55.50780255 146.43250704 -55.9927837 149.16953908 -55.30859375 153.53125 C-54.41101819 155.67905077 -54.41101819 155.67905077 -52.30859375 156.53125 C-49.04631209 156.2449224 -49.04631209 156.2449224 -45.30859375 155.53125 C-43.728446 155.48605127 -42.14711981 155.47232909 -40.56640625 155.48828125 C-39.36588623 155.49758667 -39.36588623 155.49758667 -38.14111328 155.50708008 C-37.53638184 155.51505615 -36.93165039 155.52303223 -36.30859375 155.53125 C-36.27886475 156.43496338 -36.27886475 156.43496338 -36.24853516 157.35693359 C-35.88973358 167.80182598 -35.4952133 178.25003557 -34.49609375 188.65625 C-34.43824707 189.38247559 -34.38040039 190.10870117 -34.32080078 190.85693359 C-33.82118864 195.54483104 -32.67743111 198.22894264 -29.30859375 201.53125 C-26.05483725 203.5642352 -23.46388325 203.79239795 -19.66015625 203.83984375 C-18.5721875 203.86498047 -17.48421875 203.89011719 -16.36328125 203.91601562 C-14.08469047 203.9510509 -11.80603867 203.98232721 -9.52734375 204.00976562 C1.29316183 204.27196464 1.29316183 204.27196464 5.69140625 207.53125 C8.69140625 212.53125 8.69140625 212.53125 9.69140625 240.53125 C38.89640625 241.02625 38.89640625 241.02625 68.69140625 241.53125 C66.79594512 234.58122585 64.86076547 227.79034104 62.5546875 220.98828125 C61.97146562 219.2378099 61.38879944 217.48715331 60.80664062 215.73632812 C59.90356698 213.02907629 58.99694843 210.32322251 58.08081055 207.62036133 C57.1861966 204.97567525 56.30682438 202.32630682 55.4296875 199.67578125 C55.01726555 198.47705132 55.01726555 198.47705132 54.59651184 197.25410461 C52.54889304 191.00533904 51.59520474 185.56088135 53.8984375 179.1953125 C54.42824219 178.19242188 54.95804688 177.18953125 55.50390625 176.15625 C56.02597656 175.13789062 56.54804688 174.11953125 57.0859375 173.0703125 C58.69140625 170.53125 58.69140625 170.53125 61.69140625 168.53125 C65.37890625 168.90625 65.37890625 168.90625 68.69140625 169.53125 C69.68140625 174.97625 69.68140625 174.97625 70.69140625 180.53125 C85.96637662 181.65795024 85.96637662 181.65795024 99.765625 176.91015625 C101.33096927 175.09430915 101.33096927 175.09430915 102.48046875 173.1875 C104.00288185 171.10523177 105.28433958 170.42325422 107.69140625 169.53125 C112.58200941 169.60887862 114.69648163 169.75261334 118.56640625 172.78125 C122.70674603 178.13933677 123.44211752 182.88859271 122.69140625 189.53125 C121.58515688 193.47131625 119.97530698 196.96124074 116.69140625 199.53125 C113.47831423 201.13779601 110.17668091 201.00042159 106.69140625 200.53125 C101.47738111 197.63456936 101.23733732 195.47175582 98.69140625 189.53125 C81.36640625 190.02625 81.36640625 190.02625 63.69140625 190.53125 C64.44194251 196.20922725 64.44194251 196.20922725 65.85888672 201.51953125 C66.08937714 202.21715576 66.31986755 202.91478027 66.55734253 203.63354492 C66.80525543 204.3629126 67.05316833 205.09228027 67.30859375 205.84375 C67.56641632 206.61630127 67.82423889 207.38885254 68.08987427 208.18481445 C68.63340198 209.80938689 69.17982681 211.43299265 69.72900391 213.05566406 C70.56321954 215.52182923 71.38780657 217.99105329 72.2109375 220.4609375 C72.7429246 222.04706461 73.27545863 223.6330084 73.80859375 225.21875 C74.05245819 225.94811768 74.29632263 226.67748535 74.5475769 227.42895508 C76.06462547 231.89835448 77.78015076 236.21519246 79.69140625 240.53125 C96.26016118 241.29517825 111.29152606 240.45565032 124.69140625 229.53125 C125.37460937 229.00789062 126.0578125 228.48453125 126.76171875 227.9453125 C137.20022642 219.49131199 144.40970981 206.76506898 146.69140625 193.53125 C146.98523557 189.19132658 146.98520353 184.86137989 146.98193359 180.51269531 C146.98865082 179.22382416 146.99536804 177.934953 147.00228882 176.60702515 C147.01986444 173.09025713 147.02464065 169.57358661 147.02592039 166.05677891 C147.02734753 163.85354427 147.03162775 161.65033397 147.03691483 159.44710541 C147.05538829 151.74336693 147.06358895 144.0396974 147.06201172 136.3359375 C147.06081155 129.18315826 147.08189617 122.03068136 147.11349905 114.87797856 C147.13975263 108.71375986 147.15037521 102.54963935 147.1491009 96.38536525 C147.14859386 92.71404919 147.15413252 89.04300203 147.175457 85.37174225 C147.19863349 81.27008294 147.18926334 77.16909014 147.17724609 73.06738281 C147.18848511 71.87009552 147.19972412 70.67280823 147.21130371 69.4392395 C147.09467629 53.69565801 140.75248643 41.19595226 130.1015625 29.8515625 C116.92951925 17.17053545 101.12310427 13.23552645 83.33544922 13.22485352 C82.14049332 13.21653 80.94553741 13.20820648 79.71437073 13.19963074 C76.46396018 13.17978532 73.21369821 13.16891224 69.96323538 13.16380429 C67.92311239 13.16013741 65.88301314 13.15388549 63.84289932 13.1468029 C56.69864086 13.12237117 49.55445432 13.10927072 42.41015625 13.10571289 C35.79470162 13.10208527 29.17971303 13.07222973 22.56440055 13.03030831 C16.84933075 12.9953868 11.13441375 12.98016069 5.41923821 12.97946686 C2.02160447 12.97868125 -1.37555353 12.97027986 -4.7730751 12.94146919 C-29.16238563 12.76729525 -49.96447265 15.54750741 -67.30859375 34.53125 Z " fill="#0265B3" transform="translate(159.30859375,372.46875)"/>
<path d="M0 0 C5.61 0 11.22 0 17 0 C17.7734375 1.87300781 18.546875 3.74601562 19.34375 5.67578125 C25.18166816 19.80410635 31.0395398 33.92279547 37 48 C38.58417314 45.62374029 39.65967079 43.65706985 40.75585938 41.06689453 C41.08960571 40.2824295 41.42335205 39.49796448 41.76721191 38.68972778 C42.12246948 37.84594574 42.47772705 37.0021637 42.84375 36.1328125 C43.21350952 35.26107391 43.58326904 34.38933533 43.9642334 33.49118042 C45.14570047 30.70366239 46.32283528 27.91433723 47.5 25.125 C48.29269835 23.25379168 49.08566403 21.38269658 49.87890625 19.51171875 C51.33554396 16.07243528 52.79181262 12.63300037 54.24414062 9.19189453 C54.53567017 8.5014505 54.82719971 7.81100647 55.12756348 7.09963989 C56.10713944 4.74215403 57.05187599 2.37031001 58 0 C63.61 0 69.22 0 75 0 C75 25.08 75 50.16 75 76 C70.71 76 66.42 76 62 76 C61.67 58.84 61.34 41.68 61 24 C58.586875 29.630625 56.17375 35.26125 53.6875 41.0625 C52.93170654 42.82601807 52.17591309 44.58953613 51.3972168 46.40649414 C51.08747925 47.12921509 50.7777417 47.85193604 50.45861816 48.59655762 C48.65452576 52.80610657 48.65452576 52.80610657 46.85043335 57.01565552 C46.56979034 57.6704892 46.28914734 58.32532288 46 59 C45 61.33333333 44 63.66666667 43 66 C39.37 66 35.74 66 32 66 C27.59282229 56.6646525 23.53835924 47.23823572 19.625 37.6875 C17.76875 33.170625 15.9125 28.65375 14 24 C13.67 41.16 13.34 58.32 13 76 C8.71 76 4.42 76 0 76 C0 50.92 0 25.84 0 0 Z " fill="#080909" transform="translate(744,462)"/>
<path d="M0 0 C5.28 0 10.56 0 16 0 C30.14893617 33.68085106 30.14893617 33.68085106 36 48 C38.77878092 45.22121908 39.84864833 41.86599363 41.30078125 38.28125 C41.61903366 37.50873901 41.93728607 36.73622803 42.2651825 35.94030762 C43.28570361 33.46212421 44.2997 30.98134797 45.3125 28.5 C53.32362925 8.90048127 53.32362925 8.90048127 58 0 C62.95 0 67.9 0 73 0 C73 25.08 73 50.16 73 76 C69.04 76 65.08 76 61 76 C60.67 58.84 60.34 41.68 60 24 C54.06 37.86 48.12 51.72 42 66 C38.37 66 34.74 66 31 66 C29.30981236 62.18867271 27.62283105 58.37597458 25.9375 54.5625 C25.47150391 53.51255859 25.00550781 52.46261719 24.52539062 51.38085938 C20.52107626 42.30986154 16.77922017 33.17810613 13 24 C12.67 41.16 12.34 58.32 12 76 C8.04 76 4.08 76 0 76 C0 50.92 0 25.84 0 0 Z " fill="#050606" transform="translate(487,462)"/>
<path d="M0 0 C5.28 0 10.56 0 16 0 C19.50401288 6.8291237 22.65896582 13.68368594 25.5 20.8125 C25.91362793 21.84624756 26.32725586 22.87999512 26.75341797 23.94506836 C32.99072985 39.78061814 38.45147327 55.91346202 44 72 C40.47625048 73.90169858 37.96963851 74.29751064 33.9375 74.3125 C32.89464844 74.32925781 31.85179687 74.34601563 30.77734375 74.36328125 C28 74 28 74 25 71 C24.01 67.7 23.02 64.4 22 61 C12.1 61 2.2 61 -8 61 C-8.66 63.97 -9.32 66.94 -10 70 C-12 73 -12 73 -13.625 73.6875 C-17.099828 74.14471421 -20.49586168 74.05840231 -24 74 C-25.33071426 70.00785721 -24.08129266 67.39020319 -22.7890625 63.5625 C-22.54554047 62.81795563 -22.30201843 62.07341125 -22.05111694 61.30630493 C-21.25114399 58.86789399 -20.43843609 56.43394959 -19.625 54 C-19.07095521 52.32362273 -18.51757359 50.64702614 -17.96484375 48.97021484 C-16.84878091 45.58891345 -15.72749656 42.20940661 -14.60253906 38.83105469 C-13.37262075 35.13250808 -12.15984282 31.42885294 -10.96054077 27.72027588 C-9.97939285 24.68666065 -8.98886835 21.65610575 -8 18.625 C-7.65146973 17.54089844 -7.30293945 16.45679688 -6.94384766 15.33984375 C-5.11779757 9.80410335 -3.1138332 4.93486959 0 0 Z " fill="#0166B5" transform="translate(162,452)"/>
<path d="M0 0 C4.62 0 9.24 0 14 0 C14.4626123 1.28237549 14.92522461 2.56475098 15.40185547 3.88598633 C17.55815207 9.86200332 19.71642592 15.83730534 21.875 21.8125 C22.26138641 22.88245209 22.64777283 23.95240417 23.04586792 25.05477905 C28.64974127 40.57726861 28.64974127 40.57726861 34.35546875 56.0625 C34.59493225 56.70563644 34.83439575 57.34877289 35.08111572 58.01139832 C36.15035797 60.87869906 37.22530615 63.74374133 38.30615234 66.60668945 C38.67047363 67.57823975 39.03479492 68.54979004 39.41015625 69.55078125 C39.87627319 70.78308472 39.87627319 70.78308472 40.35180664 72.0402832 C41 74 41 74 41 76 C36.71 76 32.42 76 28 76 C25.47271215 70.01431826 23.05560417 64.1668125 21 58 C11.43 57.67 1.86 57.34 -8 57 C-8.66 59.97 -9.32 62.94 -10 66 C-10.65410414 67.8739845 -11.35245923 69.73415351 -12.125 71.5625 C-12.74375 73.026875 -13.3625 74.49125 -14 76 C-18.29 76 -22.58 76 -27 76 C-26.25272698 72.26363488 -25.43491965 69.16923775 -24.14575195 65.63745117 C-23.76477859 64.58833054 -23.38380524 63.5392099 -22.99128723 62.45829773 C-22.57779526 61.33123917 -22.16430328 60.2041806 -21.73828125 59.04296875 C-21.09586739 57.27932732 -21.09586739 57.27932732 -20.44047546 55.48005676 C-19.29954223 52.35019641 -18.15541756 49.22153977 -17.00982666 46.09338379 C-15.86617909 42.96764734 -14.72737131 39.84014802 -13.58789062 36.71289062 C-9.11653891 24.4530873 -4.60971098 12.20847171 0 0 Z " fill="#060707" transform="translate(375,462)"/>
<path d="M0 0 C7.05848182 4.35796954 10.33359546 9.40313014 12.9296875 17.19140625 C13.65606366 28.05911107 13.02732363 37.51651765 5.9296875 46.19140625 C-0.94942657 52.23160397 -7.76310165 53.65611657 -16.80859375 53.51171875 C-21.5043843 53.05057525 -25.05593251 51.60340767 -29.0703125 49.19140625 C-29.9778125 48.65515625 -30.8853125 48.11890625 -31.8203125 47.56640625 C-38.33707123 40.68760536 -40.42821121 32.10534529 -40.27734375 22.875 C-39.69678095 15.34959169 -37.4294676 9.40056797 -32.13671875 3.953125 C-22.88163877 -3.9373118 -10.94779715 -5.75461132 0 0 Z " fill="#070808" transform="translate(611.0703125,485.80859375)"/>
<path d="M0 0 C4.47220435 3.65907628 8.34848452 8.35607905 9.38757324 14.16769409 C9.55484218 16.59641452 9.60580923 18.99915483 9.609375 21.43359375 C9.62591125 22.31153091 9.64244751 23.18946808 9.65948486 24.0940094 C9.70774725 26.87524564 9.72928699 29.65593599 9.75 32.4375 C9.77817794 34.33270943 9.80810791 36.22789368 9.83984375 38.12304688 C9.91350014 42.74865293 9.96320736 47.37395981 10 52 C5.71 52 1.42 52 -3 52 C-3.495 50.02 -3.495 50.02 -4 48 C-4.928125 48.639375 -5.85625 49.27875 -6.8125 49.9375 C-12.66344878 53.72340804 -18.21017165 53.49527926 -25 53 C-30.47338604 51.10919391 -34.43920734 47.74996802 -37.3125 42.6875 C-38.76384898 37.01404488 -38.82048648 32.84264389 -35.9375 27.75 C-32.79073724 23.21259987 -29.12763972 20.81007478 -23.72265625 19.41015625 C-20.43208899 18.91444669 -17.26480906 18.86788276 -13.9375 18.875 C-12.72964844 18.87242187 -11.52179687 18.86984375 -10.27734375 18.8671875 C-7.63262593 18.97436319 -5.50466308 19.21299863 -3 20 C-4.03612624 13.6641528 -4.03612624 13.6641528 -8 9 C-12.29895074 7.56701642 -15.98198657 7.0393826 -20.19921875 9.046875 C-24.26200443 11.37784986 -24.26200443 11.37784986 -27 15 C-30.45925163 13.7508258 -33.14693203 12.32472205 -36 10 C-34.44218899 4.54766145 -31.02497529 1.69479642 -26.25 -0.98046875 C-17.80654126 -4.72725357 -8.12491589 -4.13372914 0 0 Z " fill="#060707" transform="translate(866,486)"/>
<path d="M0 0 C6.17168903 4.15402146 8.71248794 9.13746382 11 16 C11 19.96 11 23.92 11 28 C-1.87 28 -14.74 28 -28 28 C-25.37602886 35.85342617 -25.37602886 35.85342617 -20 41 C-15.66744825 42.46850701 -12.60362598 42.19114823 -8.25 40.8125 C-4.97535991 39.19966461 -4.97535991 39.19966461 -2.875 36.75 C-1 35 -1 35 1.4375 35.0625 C4.21206633 36.07758524 6.53450143 37.37981523 9 39 C8.16736856 44.41210434 4.16945045 46.87291217 0 50 C-6.48103573 54.01824215 -13.54595345 53.8706061 -21 53 C-27.86945859 50.93088597 -33.23628139 47.13622771 -37 41 C-40.97808104 33.28585046 -41.21520855 24.32769399 -39.30859375 15.96875 C-37.05775356 9.11263428 -34.12128039 3.47276824 -27.8125 -0.3125 C-18.99580145 -4.38174549 -8.61736266 -4.79171735 0 0 Z " fill="#060707" transform="translate(960,486)"/>
<path d="M0 0 C3.96 0 7.92 0 12 0 C12.33 14.85 12.66 29.7 13 45 C19.15804382 38.21808002 19.15804382 38.21808002 25.01171875 31.1796875 C31.95995824 22.43348319 31.95995824 22.43348319 37.87890625 21.17578125 C41.34958076 21.18628783 44.58335239 21.40865714 48 22 C48 24 48 24 46.0625 26.0625 C45.04369916 27.04378126 44.02250076 28.02257468 43 29 C37.41641532 34.468782 32.05404796 40.03589839 27 46 C28.63993219 50.03675615 31.48398248 52.89034939 34.4375 56 C35.51450473 57.15087155 36.59132305 58.30191757 37.66796875 59.453125 C38.21759277 60.03771484 38.7672168 60.62230469 39.33349609 61.22460938 C41.98772641 64.05226288 44.62146648 66.89847364 47.25 69.75 C47.72751709 70.26304687 48.20503418 70.77609375 48.69702148 71.3046875 C52 74.88592101 52 74.88592101 52 76 C40.09534959 78.07466937 40.09534959 78.07466937 35.09423828 74.72265625 C31.44891362 71.44038821 28.37383619 67.6897386 25.38964844 63.80761719 C23.33775198 61.13856565 21.1651597 58.57757107 19 56 C16.06895249 57.55906782 14.80745683 58.28126271 13 61 C12.15258614 66.00986811 12.01276364 70.92645175 12 76 C8.04 76 4.08 76 0 76 C0 50.92 0 25.84 0 0 Z " fill="#060707" transform="translate(690,462)"/>
<path d="M0 0 C3.63 0 7.26 0 11 0 C13.46278801 2.46278801 13.99771255 4.70676982 15 8 C16.17973389 8.01401855 16.17973389 8.01401855 17.38330078 8.02832031 C20.96449238 8.08217282 24.54439883 8.16579363 28.125 8.25 C29.98125 8.27126953 29.98125 8.27126953 31.875 8.29296875 C43.50230492 8.60553071 43.50230492 8.60553071 48 13 C51.46320052 17.43909893 52.50991337 20.3229176 52.53125 25.9375 C52.53898437 27.89816406 52.53898437 27.89816406 52.546875 29.8984375 C52.53430664 30.90922363 52.53430664 30.90922363 52.52148438 31.94042969 C52.5000486 33.99534123 52.52132507 36.04675818 52.546875 38.1015625 C52.54171875 39.40867187 52.5365625 40.71578125 52.53125 42.0625 C52.52673828 43.24972656 52.52222656 44.43695313 52.51757812 45.66015625 C51.77141499 50.47502026 49.56577171 53.6240188 45.9375 56.8125 C42.19132591 59.10854218 38.88193965 59.18021006 34.58203125 59.31640625 C33.32841797 59.35830078 32.07480469 59.40019531 30.78320312 59.44335938 C29.47287109 59.48267578 28.16253906 59.52199219 26.8125 59.5625 C25.47720022 59.60570992 24.14191348 59.649325 22.80664062 59.69335938 C19.53786703 59.79956502 16.26901667 59.90160997 13 60 C13 62.31 13 64.62 13 67 C8.71 67 4.42 67 0 67 C0 60.07 0 53.14 0 46 C2.36613456 44.81693272 3.86780736 44.86645392 6.5 44.875 C7.69109375 44.87113281 7.69109375 44.87113281 8.90625 44.8671875 C11 45 11 45 13 46 C13.66 46.99 14.32 47.98 15 49 C17.52445756 49.32357346 17.52445756 49.32357346 20.4453125 49.07421875 C21.41484863 49.02612061 22.38438477 48.97802246 23.38330078 48.9284668 C24.61806152 48.84894775 25.85282227 48.76942871 27.125 48.6875 C31.04375 48.460625 34.9625 48.23375 39 48 C39.33 38.76 39.66 29.52 40 20 C34.7096875 19.9690625 34.7096875 19.9690625 29.3125 19.9375 C28.20946533 19.928396 27.10643066 19.91929199 25.9699707 19.90991211 C25.08913818 19.90741455 24.20830566 19.90491699 23.30078125 19.90234375 C22.40528564 19.89710693 21.50979004 19.89187012 20.5871582 19.88647461 C17.96358241 20.00159802 15.55706947 20.41765715 13 21 C13.020625 22.134375 13.04125 23.26875 13.0625 24.4375 C13 28 13 28 12 29 C8.04 29 4.08 29 0 29 C0 19.43 0 9.86 0 0 Z " fill="#0263B1" transform="translate(242,466)"/>
<path d="M0 0 C4.62895484 2.84049501 7.76038722 7.07285189 10 12 C8.73083275 14.53833449 7.58375191 14.89400901 5.0625 16.125 C4.35222656 16.47820312 3.64195312 16.83140625 2.91015625 17.1953125 C1 18 1 18 -1 18 C-4 13.61538462 -4 13.61538462 -4 11 C-9.4687251 8.17743221 -14.94705315 8.53542113 -20.875 9.4375 C-24.45168225 12.06741342 -25.15555322 15.77116885 -26 20 C-26.73261517 26.87971434 -26.08553266 33.17839699 -21.875 38.875 C-18.22220987 41.57488836 -15.50735975 42.28278113 -11 42 C-6.67059132 40.77333421 -4.06347893 39.51570389 -1.5625 35.8125 C-1.046875 34.884375 -0.53125 33.95625 0 33 C4.51478398 33.53115106 7.34666857 35.36620292 11 38 C7.02973327 44.90285011 2.93681818 50.07926471 -4.859375 52.6015625 C-13.02358682 54.12117857 -20.5967279 53.73508907 -27.84375 49.546875 C-33.58170176 45.4305183 -37.71802411 40.06137537 -39 33 C-39.8720935 23.23255277 -40.26573736 14.1438803 -34 6 C-24.87317782 -4.14573107 -12.13838712 -5.67604742 0 0 Z " fill="#070707" transform="translate(671,486)"/>
<path d="M0 0 C2.97 0 5.94 0 9 0 C9 4.95 9 9.9 9 15 C13.62 15 18.24 15 23 15 C23 18.63 23 22.26 23 26 C18.38 26 13.76 26 9 26 C9.495 41.345 9.495 41.345 10 57 C12.52475462 58.26237731 14.31200466 58.09856404 17.125 58.0625 C18.03507813 58.05347656 18.94515625 58.04445313 19.8828125 58.03515625 C20.58148437 58.02355469 21.28015625 58.01195312 22 58 C22.99 60.97 23.98 63.94 25 67 C20.252842 70.164772 15.64818685 70.4786599 10 70 C4.12748802 68.04249601 0.48010314 65.0619682 -3 60 C-4.27958772 56.39849478 -4.11371813 52.83747786 -4.09765625 49.046875 C-4.0962413 48.38665344 -4.09482635 47.72643188 -4.09336853 47.04620361 C-4.08779245 44.94742206 -4.07524447 42.84874905 -4.0625 40.75 C-4.0574819 39.32291821 -4.05291954 37.89583475 -4.04882812 36.46875 C-4.03783088 32.97913168 -4.0205828 29.48957644 -4 26 C-6.31 26 -8.62 26 -11 26 C-11 22.7 -11 19.4 -11 16 C-8.36 16 -5.72 16 -3 16 C-2.95101562 15.43152344 -2.90203125 14.86304688 -2.8515625 14.27734375 C-2.36856919 9.28918871 -1.52361837 4.77400422 0 0 Z " fill="#0C0D0C" transform="translate(892,469)"/>
<path d="M0 0 C4.95 0 9.9 0 15 0 C15 24.42 15 48.84 15 74 C10.05 74 5.1 74 0 74 C0 49.58 0 25.16 0 0 Z " fill="#006DBC" transform="translate(211,452)"/>
<path d="M0 0 C3.96 0 7.92 0 12 0 C12 25.08 12 50.16 12 76 C8.04 76 4.08 76 0 76 C0 50.92 0 25.84 0 0 Z " fill="#040505" transform="translate(423,462)"/>
<path d="M0 0 C3.44262269 1.43096967 5.29418012 3.67691329 7.05859375 6.984375 C9.83037646 13.93231032 9.31703568 20.44400366 6.75 27.375 C4.64454081 30.53318878 3.36961503 32.17479186 0 34 C-4.43689569 34.72480586 -8.84359042 35.03984968 -12.9765625 33.046875 C-16.25753673 30.49321033 -17.75863233 27.87440313 -19 24 C-19.82410694 16.51595908 -19.88045017 9.11562583 -15 3 C-10.54723745 -1.1443461 -5.78080397 -0.86293161 0 0 Z " fill="#FBFAFA" transform="translate(603,494)"/>
<path d="M0 0 C10.56 0 21.12 0 32 0 C32 3.63 32 7.26 32 11 C21.44 11 10.88 11 0 11 C0 7.37 0 3.74 0 0 Z " fill="#0E0F0F" transform="translate(444,503)"/>
<path d="M0 0 C2 1 2 1 3.14501953 3.95922852 C3.56542079 5.26329779 3.97745065 6.57008401 4.3828125 7.87890625 C4.60194305 8.5655687 4.82107361 9.25223114 5.04684448 9.95970154 C5.74670837 12.15844136 6.43594459 14.36035181 7.125 16.5625 C7.5969613 18.05165272 8.06960884 19.54058814 8.54296875 21.02929688 C9.70461188 24.6833778 10.85183602 28.3415513 12 32 C5.07 32 -1.86 32 -9 32 C-6.44111629 21.19582432 -3.24577058 10.61450446 0 0 Z " fill="#F7FAFB" transform="translate(167,467)"/>
<path d="M0 0 C5.06133788 1.61962812 9.85206617 3.63222362 14.70703125 5.78125 C23.24738099 8.94209118 31.334935 9.29292547 40.39160156 9.2746582 C41.70827316 9.27976913 43.02494476 9.28488007 44.3815155 9.29014587 C47.97061257 9.30345732 51.55960382 9.30412316 55.14872074 9.30158257 C58.15768795 9.30050708 61.16663426 9.30541116 64.17559695 9.310188 C71.28293364 9.32125696 78.39021747 9.32173594 85.49755859 9.31567383 C92.7985456 9.30964165 100.09933951 9.32193177 107.40029359 9.3432439 C113.69533068 9.36093536 119.99030673 9.36684926 126.28536773 9.36360615 C130.03321702 9.36180445 133.78092869 9.36431655 137.52875519 9.37832069 C141.0583516 9.39101734 144.58765028 9.38884498 148.11724281 9.37590981 C150.00760826 9.37246604 151.89798332 9.38363537 153.78831482 9.39547729 C161.88002517 9.34644687 169.1973442 8.13116084 177 6 C176 8 176 8 173.70703125 8.81640625 C172.75183594 9.06261719 171.79664063 9.30882812 170.8125 9.5625 C169.87019531 9.81128906 168.92789063 10.06007813 167.95703125 10.31640625 C163.09111472 11.44128788 158.44145375 12.12429732 153.44410706 12.14717102 C151.82349113 12.15790398 151.82349113 12.15790398 150.1701355 12.16885376 C148.99967682 12.17154266 147.82921814 12.17423157 146.62329102 12.17700195 C145.37854507 12.18357315 144.13379913 12.19014435 142.85133362 12.19691467 C138.73552199 12.21660907 134.61974928 12.22831277 130.50390625 12.23828125 C129.07965514 12.24233314 127.65540422 12.24645018 126.23115349 12.25063133 C119.5329199 12.2696678 112.83469718 12.28389848 106.13644177 12.2922433 C98.44194261 12.30199098 90.74773302 12.32825192 83.05333573 12.36874419 C77.08275142 12.39906994 71.11224931 12.41372788 65.14158958 12.41702431 C61.58693832 12.41935733 58.03259686 12.42808516 54.47802925 12.45348549 C37.12517629 12.5711163 21.67892871 12.62169374 6.0625 4.25 C4.89847656 3.63640625 3.73445313 3.0228125 2.53515625 2.390625 C1.69855469 1.93171875 0.86195312 1.4728125 0 1 C0 0.67 0 0.34 0 0 Z " fill="#185D9E" transform="translate(97,614)"/>
<path d="M0 0 C0.66 0 1.32 0 2 0 C3.1275372 3.35331907 4.25156691 6.70780396 5.375 10.0625 C5.69210937 11.00544922 6.00921875 11.94839844 6.3359375 12.91992188 C6.6453125 13.84482422 6.9546875 14.76972656 7.2734375 15.72265625 C7.55622559 16.56578369 7.83901367 17.40891113 8.13037109 18.27758789 C9.1585598 21.49637854 10.07171144 24.75099006 11 28 C4.4 28 -2.2 28 -9 28 C-8.25023558 24.25117791 -7.40819133 21.04867059 -6.15234375 17.48046875 C-5.61577148 15.9480957 -5.61577148 15.9480957 -5.06835938 14.38476562 C-4.69517578 13.32966797 -4.32199219 12.27457031 -3.9375 11.1875 C-3.56044922 10.11306641 -3.18339844 9.03863281 -2.79492188 7.93164062 C-1.86625342 5.28669882 -0.93451811 2.64287946 0 0 Z " fill="#F9FAF9" transform="translate(381,480)"/>
<path d="M0 0 C0.80179688 0.00451172 1.60359375 0.00902344 2.4296875 0.01367188 C4.41149006 0.02546832 6.39325433 0.04340395 8.375 0.0625 C8.6484375 6.6484375 8.6484375 6.6484375 6.1875 10.375 C2.36585517 14.02679395 0.09489234 14.90893818 -5.125 15.375 C-9.13767222 15.01672569 -11.75866354 13.92883646 -14.625 11.0625 C-14.9375 8.25 -14.9375 8.25 -14.625 5.0625 C-10.28335985 -0.29218952 -6.52824692 -0.06888572 0 0 Z " fill="#F9F9F9" transform="translate(854.625,513.9375)"/>
<path d="M0 0 C4.95 0 9.9 0 15 0 C15 24.42 15 48.84 15 74 C10.05 74 5.1 74 0 74 C0 49.58 0 25.16 0 0 Z M2 1 C2 24.43 2 47.86 2 72 C5.96 72 9.92 72 14 72 C14 48.57 14 25.14 14 1 C10.04 1 6.08 1 2 1 Z " fill="#033989" transform="translate(211,452)"/>
<path d="M0 0 C3.5022538 2.11594501 5.62235075 4.11753393 7 8 C7 8.99 7 9.98 7 11 C-1.91 11 -10.82 11 -20 11 C-15.44954996 0.38228324 -10.94204519 -2.24010374 0 0 Z " fill="#FBFBFA" transform="translate(952,494)"/>
<path d="M0 0 C1.2400177 -0.00029205 2.4800354 -0.00058411 3.75762939 -0.00088501 C7.13105381 0.00026314 10.5042283 0.01023916 13.87760854 0.02426291 C17.41298121 0.03683212 20.94835782 0.03794562 24.48374939 0.04031372 C31.16647437 0.0465104 37.8491333 0.06289648 44.5318293 0.0830127 C52.14494309 0.10542836 59.75806016 0.11637933 67.37119877 0.12640357 C83.02086012 0.14726448 98.67045569 0.18240491 114.32006836 0.22705078 C114.32006836 0.55705078 114.32006836 0.88705078 114.32006836 1.22705078 C113.36813599 1.22786793 113.36813599 1.22786793 112.39697266 1.22870159 C96.88580088 1.24373234 81.37498142 1.28643127 65.86398315 1.35914135 C58.36265884 1.39365211 50.86151564 1.41912845 43.36010742 1.42260742 C36.81446766 1.42566685 30.26915158 1.44641992 23.72363663 1.48757535 C20.26443856 1.50872981 16.80569856 1.52159811 13.34643555 1.51320457 C-4.21368453 1.47773999 -19.76534817 1.70149166 -35.07836914 11.30908203 C-36.67993164 12.22705078 -36.67993164 12.22705078 -38.67993164 12.22705078 C-38.67993164 11.23705078 -38.67993164 10.24705078 -38.67993164 9.22705078 C-36.97836914 8.60830078 -36.97836914 8.60830078 -35.24243164 7.97705078 C-31.4731278 6.57683404 -27.85994211 4.95273103 -24.24633789 3.19189453 C-16.25382262 0.18709807 -8.46536744 -0.05269337 0 0 Z " fill="#002678" transform="translate(141.679931640625,384.77294921875)"/>
<path d="M0 0 C3.63 0 7.26 0 11 0 C13 2 13 2 13.125 4.625 C13.08375 5.40875 13.0425 6.1925 13 7 C12.34 5.68 11.68 4.36 11 3 C8.03 2.67 5.06 2.34 2 2 C2 10.25 2 18.5 2 27 C5.3 27 8.6 27 12 27 C12 25.02 12 23.04 12 21 C12.33 21 12.66 21 13 21 C13.04241723 23.33294775 13.04092937 25.66702567 13 28 C12.67 28.33 12.34 28.66 12 29 C8.04 29 4.08 29 0 29 C0 19.43 0 9.86 0 0 Z " fill="#034293" transform="translate(242,466)"/>
<path d="M0 0 C3.36311265 1.20727121 4.85551624 2.71103249 6.4375 5.875 C6.477492 7.87460012 6.48096799 9.87547242 6.4375 11.875 C4.4375 8.875 4.4375 8.875 3.625 6.25 C3.233125 5.46625 2.84125 4.6825 2.4375 3.875 C-0.11025306 2.98113836 -0.11025306 2.98113836 -2.5625 2.875 C-3.54363243 4.16517414 -4.52234199 5.45719106 -5.5 6.75 C-6.04527344 7.46929688 -6.59054688 8.18859375 -7.15234375 8.9296875 C-10.68043016 13.79668758 -10.05878148 19.06273203 -9.5625 24.875 C-8.51978269 29.18670548 -7.05497769 33.28656623 -5.5 37.4375 C-4.73044019 39.54011547 -3.96833033 41.64547743 -3.21484375 43.75390625 C-2.87445068 44.6672876 -2.53405762 45.58066895 -2.18334961 46.52172852 C-1.5625 48.875 -1.5625 48.875 -2.5625 51.875 C-4.04485893 47.79281844 -5.52283341 43.70906302 -7 39.625 C-7.63131836 37.88669922 -7.63131836 37.88669922 -8.27539062 36.11328125 C-8.67822266 34.99824219 -9.08105469 33.88320313 -9.49609375 32.734375 C-9.86790771 31.70795898 -10.23972168 30.68154297 -10.62280273 29.62402344 C-13.33415076 21.69215055 -13.48369154 16.2100451 -9.8125 8.5625 C-5.3388996 -0.26043413 -5.3388996 -0.26043413 0 0 Z " fill="#043D8F" transform="translate(223.5625,540.125)"/>
<path d="M0 0 C3.125 0.375 3.125 0.375 6 1 C6.0272415 2.41655793 6.04650467 3.83327045 6.0625 5.25 C6.07410156 6.03890625 6.08570313 6.8278125 6.09765625 7.640625 C6.00385306 9.90691002 5.63241063 11.8288895 5 14 C2.69 14.33 0.38 14.66 -2 15 C-2.05386629 12.87527424 -2.09273071 10.75016348 -2.125 8.625 C-2.14820313 7.44164062 -2.17140625 6.25828125 -2.1953125 5.0390625 C-2 2 -2 2 0 0 Z " fill="#024E9F" transform="translate(269,550)"/>
<path d="M0 0 C5.06133788 1.61962812 9.85206617 3.63222362 14.70703125 5.78125 C22.24438902 8.57087707 29.50977156 9.31325197 37.50390625 9.4140625 C38.4677977 9.43342865 39.43168915 9.4527948 40.42478943 9.4727478 C43.47060601 9.53200812 46.51646149 9.57871275 49.5625 9.625 C51.64129153 9.66322916 53.72006806 9.70228368 55.79882812 9.7421875 C60.86576198 9.83766496 65.93276985 9.92189118 71 10 C71 10.33 71 10.66 71 11 C64.58135687 11.12829024 58.16305206 11.21496502 51.7434082 11.2746582 C49.56619921 11.2995801 47.38907191 11.33353046 45.2121582 11.37719727 C28.17672398 11.70999706 14.70594855 10.36557699 0 1 C0 0.67 0 0.34 0 0 Z " fill="#002C7C" transform="translate(97,614)"/>
<path d="M0 0 C1.38478177 4.15434531 -0.00307036 7.2198683 -1.25 11.25 C-1.46785156 11.98863281 -1.68570313 12.72726562 -1.91015625 13.48828125 C-3.31583841 18.14922736 -5.00336012 22.56041251 -7 27 C-3.7 26.67 -0.4 26.34 3 26 C3.66 24.35 4.32 22.7 5 21 C5.625 22.8125 5.625 22.8125 6 25 C4 28 4 28 2.375 28.6875 C-1.099828 29.14471421 -4.49586168 29.05840231 -8 29 C-9.27683885 25.16948344 -8.47068609 23.78754314 -7.12890625 20.01953125 C-6.71962891 18.85615234 -6.31035156 17.69277344 -5.88867188 16.49414062 C-5.45103516 15.27919922 -5.01339844 14.06425781 -4.5625 12.8125 C-4.12873047 11.58595703 -3.69496094 10.35941406 -3.24804688 9.09570312 C-2.17344096 6.06082708 -1.09046384 3.02920676 0 0 Z " fill="#0C4694" transform="translate(146,497)"/>
<path d="M0 0 C0.33 0.99 0.66 1.98 1 3 C-0.87889253 5.7460737 -2.90880022 7.91835307 -5.38671875 10.13671875 C-8.57502128 13.63003079 -10.27740071 17.15187761 -12.1875 21.4375 C-12.52974609 22.17548828 -12.87199219 22.91347656 -13.22460938 23.67382812 C-15.07557745 27.71720499 -16.68480854 31.74417534 -18 36 C-19.42187033 32.59432255 -18.65666642 30.27866965 -17.36108398 26.92333984 C-17.09755127 26.2886377 -16.83401855 25.65393555 -16.5625 25 C-16.2931665 24.34080566 -16.02383301 23.68161133 -15.74633789 23.00244141 C-11.99977163 14.21278722 -6.91272121 6.6371708 0 0 Z " fill="#083F8F" transform="translate(127,427)"/>
<path d="M0 0 C0.66 0.33 1.32 0.66 2 1 C0.75479583 2.44165628 -0.49637923 3.87815652 -1.75 5.3125 C-2.44609375 6.11300781 -3.1421875 6.91351563 -3.859375 7.73828125 C-5.79357636 9.78189911 -7.75216103 11.33003684 -10 13 C-10.309375 13.66 -10.61875 14.32 -10.9375 15 C-12.38355196 17.72198016 -14.32183558 18.59043978 -17 20 C-14.05484416 11.49343312 -6.82284019 5.54355765 0 0 Z " fill="#0F4E9B" transform="translate(94,389)"/>
<path d="M0 0 C1.13973277 3.36529203 0.84992251 5.33920646 -0.25 8.6875 C-0.53230469 9.56019531 -0.81460938 10.43289063 -1.10546875 11.33203125 C-1.40066406 12.21246094 -1.69585937 13.09289062 -2 14 C-2.26425781 14.82886719 -2.52851563 15.65773438 -2.80078125 16.51171875 C-3.98004472 20.17045925 -5.21636956 23.58584045 -7 27 C-8.23610013 23.47100092 -7.7492958 21.34581707 -6.6015625 17.83203125 C-6.28703125 16.85685547 -5.9725 15.88167969 -5.6484375 14.87695312 C-5.31070313 13.86568359 -4.97296875 12.85441406 -4.625 11.8125 C-4.295 10.78962891 -3.965 9.76675781 -3.625 8.71289062 C-1.15875154 1.15875154 -1.15875154 1.15875154 0 0 Z " fill="#0C4997" transform="translate(155,469)"/>
<path d="M0 0 C1.32 0.33 2.64 0.66 4 1 C4 4.3 4 7.6 4 11 C2.68 11.33 1.36 11.66 0 12 C0 8.04 0 4.08 0 0 Z " fill="#F6FBFC" transform="translate(265,427)"/>
<path d="M0 0 C1.32 0 2.64 0 4 0 C4 3.3 4 6.6 4 10 C2.02 10.99 2.02 10.99 0 12 C0 8.04 0 4.08 0 0 Z " fill="#F1FBFC" transform="translate(269,552)"/>
<path d="M0 0 C0.33 0.66 0.66 1.32 1 2 C-0.05058594 2.30292969 -1.10117188 2.60585938 -2.18359375 2.91796875 C-9.33845153 5.03511826 -16.02587674 7.08380297 -22.3984375 11.08203125 C-24 12 -24 12 -26 12 C-26 11.01 -26 10.02 -26 9 C-24.2984375 8.38125 -24.2984375 8.38125 -22.5625 7.75 C-19.48859769 6.60811023 -16.52941979 5.33216124 -13.5625 3.9375 C-9.15398167 1.93292982 -4.75341896 0.85404218 0 0 Z " fill="#053E91" transform="translate(129,385)"/>
<path d="M0 0 C4.05004756 1.29601522 7.92033992 2.79099263 11.8125 4.5 C16.85709371 6.63497786 21.61963394 8.01359956 27 9 C27 9.66 27 10.32 27 11 C17.3365862 9.56759132 8.20959888 6.36838979 0 1 C0 0.67 0 0.34 0 0 Z " fill="#094393" transform="translate(97,614)"/>
<path d="M0 0 C2.36937476 2.85372208 3.49492046 5.16110419 4.375 8.75 C5.61030669 13.23960926 7.41530605 16.62836021 10.109375 20.40625 C10.40328125 20.9321875 10.6971875 21.458125 11 22 C10.67 22.66 10.34 23.32 10 24 C4.79136471 16.8120833 -0.42361485 9.18918361 0 0 Z " fill="#0A4392" transform="translate(69,574)"/>
<path d="M0 0 C3.33190037 1.28150014 4.85411574 2.77073148 6.4375 5.9375 C6.477492 7.93710012 6.48096799 9.93797242 6.4375 11.9375 C4.4375 8.9375 4.4375 8.9375 3.625 6.3125 C3.233125 5.52875 2.84125 4.745 2.4375 3.9375 C-0.11025306 3.04363836 -0.11025306 3.04363836 -2.5625 2.9375 C-2.8925 3.5975 -3.2225 4.2575 -3.5625 4.9375 C-4.5525 4.6075 -5.5425 4.2775 -6.5625 3.9375 C-3.27554348 -0.0798913 -3.27554348 -0.0798913 0 0 Z " fill="#0F4995" transform="translate(223.5625,540.0625)"/>
<path d="M0 0 C-2.58090767 1.31746333 -5.16450458 2.62909617 -7.75 3.9375 C-8.47960937 4.31068359 -9.20921875 4.68386719 -9.9609375 5.06835938 C-10.66992188 5.42607422 -11.37890625 5.78378906 -12.109375 6.15234375 C-13.08342285 6.6472229 -13.08342285 6.6472229 -14.07714844 7.15209961 C-16.03293079 8.01452116 -17.91540694 8.54374179 -20 9 C-16.47428002 5.28871581 -13.15421994 1.9371309 -8 1 C-6.96875 0.62875 -5.9375 0.2575 -4.875 -0.125 C-2 -1 -2 -1 0 0 Z " fill="#0D4A97" transform="translate(168,415)"/>
<path d="M0 0 C0.66 0.33 1.32 0.66 2 1 C-0.53363068 5.22271781 -2.56620325 7.78310162 -7 10 C-5.6062718 5.56541027 -3.39417765 3.12621626 0 0 Z " fill="#054598" transform="translate(84,399)"/>
<path d="M0 0 C0.33 0.99 0.66 1.98 1 3 C-0.9375 5.6875 -0.9375 5.6875 -3 8 C-3.99 7.67 -4.98 7.34 -6 7 C-4.02 4.69 -2.04 2.38 0 0 Z " fill="#034E9F" transform="translate(127,427)"/>
<path d="M0 0 C2.42130331 2.42130331 2.52840504 3.80111377 3.125 7.125 C3.29257813 8.03507813 3.46015625 8.94515625 3.6328125 9.8828125 C3.81457031 10.93082031 3.81457031 10.93082031 4 12 C1.95780294 10.30820672 1.08206694 9.36272334 0.48828125 6.73828125 C0.43027344 5.93777344 0.37226562 5.13726563 0.3125 4.3125 C0.24675781 3.50425781 0.18101563 2.69601562 0.11328125 1.86328125 C0.07589844 1.24839844 0.03851563 0.63351562 0 0 Z " fill="#044396" transform="translate(115,564)"/>
<path d="M0 0 C1.44096586 0.42594588 2.87768712 0.86626633 4.3125 1.3125 C5.11300781 1.55613281 5.91351563 1.79976562 6.73828125 2.05078125 C9.09964573 3.04182023 10.33879993 4.08074943 12 6 C7.5428126 5.73781251 5.48477302 5.42288711 2.0625 2.4375 C1.381875 1.633125 0.70125 0.82875 0 0 Z " fill="#0A4391" transform="translate(99,534)"/>
<path d="M0 0 C0.66 0.66 1.32 1.32 2 2 C0.54462432 2.83848804 -0.91440373 3.67063934 -2.375 4.5 C-3.59316406 5.19609375 -3.59316406 5.19609375 -4.8359375 5.90625 C-7 7 -7 7 -9 7 C-9 6.01 -9 5.02 -9 4 C-8.43410156 3.79503906 -7.86820312 3.59007812 -7.28515625 3.37890625 C-6.55167969 3.10949219 -5.81820312 2.84007812 -5.0625 2.5625 C-4.33160156 2.29566406 -3.60070312 2.02882813 -2.84765625 1.75390625 C-1.01694322 1.14613052 -1.01694322 1.14613052 0 0 Z " fill="#0F4E99" transform="translate(112,390)"/>
</svg>
